<?xml version="1.0" encoding="UTF-8" standalone="no"?>
<svg width="111px" height="34px" viewBox="0 0 111 34" version="1.1" xmlns="http://www.w3.org/2000/svg" xmlns:xlink="http://www.w3.org/1999/xlink" xmlns:sketch="http://www.bohemiancoding.com/sketch/ns">
    <!-- Generator: Sketch 3.4.1 (15681) - http://www.bohemiancoding.com/sketch -->
    <title>Page 1</title>
    <desc>Created with Sketch.</desc>
    <defs></defs>
    <g id="Page-1" stroke="none" stroke-width="1" fill="none" fill-rule="evenodd" sketch:type="MSPage">
        <g sketch:type="MSLayerGroup" fill="#FFFFFF">
            <path d="M25.7966,17.7365 L17.0756,17.7365 L17.0756,6.7685 L14.2416,6.7685 L14.2416,32.4925 L17.0756,32.4925 L17.0756,20.3135 L25.7966,20.3135 L25.7966,32.4925 L26.0036,32.4925 L28.6316,32.4925 L28.6316,6.7685 L25.7966,6.7685 L25.7966,17.7365 Z" id="Fill-1" sketch:type="MSShapeGroup"></path>
            <g id="Group-16" sketch:type="MSShapeGroup">
                <path d="M36.6777,16.7174 C37.6027,16.7234 38.3117,17.2234 38.8507,18.1844 C39.3587,19.1054 39.6737,20.4414 39.7617,22.0654 L33.1627,22.0654 C33.4927,18.8744 34.8227,16.6964 36.6777,16.7174 M36.6777,14.3604 C32.7617,14.3734 30.3517,18.4464 30.3437,23.5934 C30.3457,26.4094 30.9547,28.7074 32.0987,30.3154 C33.2377,31.9214 34.9257,32.8234 36.9977,32.8234 L37.0077,32.8234 C39.1477,32.8234 40.9207,32.0694 42.3757,30.9844 L42.4777,30.9094 L42.0297,28.3504 L41.7577,28.5664 C40.1647,29.8324 38.7507,30.3914 37.2287,30.3924 C34.7597,30.3974 33.2817,28.1514 33.1137,24.3494 L42.5327,24.3494 L42.5327,23.1884 C42.5327,20.7804 42.1107,18.5934 41.1657,16.9854 C40.2257,15.3764 38.7287,14.3574 36.6777,14.3604" id="Fill-2"></path>
                <path d="M59.8615,14.3614 C58.2075,14.3654 56.7025,15.3284 55.2245,16.6894 C54.6695,15.1604 53.3735,14.3484 51.4965,14.3614 C49.8235,14.3664 48.3325,15.3744 46.8745,16.7164 L46.5745,14.7284 L44.4305,14.7284 L44.4305,32.4934 L47.1915,32.4934 L47.1915,19.0914 C48.6565,17.6354 49.8555,16.8594 50.9475,16.8654 C52.2605,16.8854 52.8035,17.6574 52.8325,19.2274 L52.8295,32.4934 L55.5545,32.4934 L55.5545,19.0914 C57.0205,17.6354 58.2165,16.8594 59.3475,16.8654 C60.6615,16.8854 61.2035,17.6574 61.2315,19.2274 L61.2315,32.4934 L61.4385,32.4934 L63.9565,32.4934 L63.9565,18.7494 C63.9565,17.3614 63.6175,16.2584 62.9215,15.5014 C62.2215,14.7434 61.1825,14.3604 59.8615,14.3614" id="Fill-4"></path>
                <path d="M66.6595,32.4927 L66.8665,32.4927 L69.4215,32.4927 L69.4215,5.6977 L66.6595,6.2157 L66.6595,32.4927 Z" id="Fill-6"></path>
                <path d="M78.0546,30.4297 C76.7856,30.4257 75.8646,29.7007 75.2196,28.4637 C74.5816,27.2297 74.2606,25.4957 74.2616,23.5927 C74.2606,21.6877 74.5636,19.9627 75.1886,18.7377 C75.8196,17.5127 76.7286,16.7967 78.0186,16.7917 C79.3046,16.7957 80.2536,17.5327 80.9216,18.7747 C81.5816,20.0127 81.9206,21.7467 81.9196,23.6297 C81.9206,25.5507 81.5996,27.2747 80.9526,28.4937 C80.3016,29.7147 79.3656,30.4257 78.0546,30.4297 M78.0546,14.3617 C75.9906,14.3577 74.3186,15.3107 73.1936,16.9447 C72.0656,18.5797 71.4656,20.8847 71.4646,23.6297 C71.4656,26.3727 72.0556,28.6607 73.1756,30.2757 C74.2916,31.8927 75.9566,32.8267 78.0186,32.8227 L78.0186,32.8237 L78.0266,32.8237 C80.1026,32.8237 81.7996,31.8837 82.9456,30.2607 C84.0976,28.6347 84.7176,26.3377 84.7176,23.5927 C84.7176,20.8467 84.1076,18.5517 82.9646,16.9247 C81.8246,15.2987 80.1346,14.3577 78.0546,14.3617" id="Fill-8"></path>
                <path d="M96.7032,28.6437 C95.2842,29.8407 94.2062,30.3547 92.9092,30.3557 C91.5402,30.3527 90.5492,29.6437 89.8572,28.4347 C89.1722,27.2237 88.8242,25.5117 88.8242,23.5917 C88.8242,21.6917 89.1812,19.9987 89.8482,18.8007 C90.5222,17.6017 91.4722,16.9047 92.7282,16.9027 C94.1712,16.9047 95.1702,17.4517 96.5202,18.5787 L96.7942,18.8097 L97.2802,15.9857 L97.1832,15.9097 C96.1002,15.0467 94.7882,14.3947 92.8012,14.3997 C90.7192,14.3957 89.0052,15.3447 87.8352,16.9747 C86.6642,18.6037 86.0272,20.9007 86.0272,23.6287 C86.0272,26.3367 86.6092,28.6147 87.7372,30.2307 C88.8622,31.8457 90.5512,32.7867 92.6792,32.7867 L92.6912,32.7867 C94.6852,32.7877 96.1362,32.0647 97.2952,31.1267 L97.3872,31.0517 L96.9832,28.4057 L96.7032,28.6437 Z" id="Fill-10"></path>
                <path d="M104.0929,22.6461 L109.9379,14.7281 L106.8539,14.7281 L101.8839,21.7341 L101.8839,5.6971 L99.1969,6.2171 L99.1969,32.4931 L101.8849,32.4931 L101.8849,23.7901 L107.4029,32.4931 L110.5539,32.4931 L104.0929,22.6461 Z" id="Fill-12"></path>
                <path d="M9.4753,34 L4.7383,0.558 L0.0003,34 C1.2503,32.855 2.9103,32.152 4.7383,32.152 C6.5643,32.152 8.2243,32.855 9.4753,34" id="Fill-14"></path>
            </g>
        </g>
    </g>
</svg>