<?xml version="1.0" encoding="UTF-8" standalone="no"?>
<svg width="29px" height="37px" viewBox="0 0 29 37" version="1.1" xmlns="http://www.w3.org/2000/svg" xmlns:xlink="http://www.w3.org/1999/xlink" xmlns:sketch="http://www.bohemiancoding.com/sketch/ns">
    <!-- Generator: Sketch 3.4.1 (15681) - http://www.bohemiancoding.com/sketch -->
    <title>Page 1</title>
    <desc>Created with Sketch.</desc>
    <defs></defs>
    <g id="Page-1" stroke="none" stroke-width="1" fill="none" fill-rule="evenodd" sketch:type="MSPage">
        <g sketch:type="MSLayerGroup" fill="#FFFFFF">
            <path d="M4.4802,33.175 L4.4802,35.833 L4.4692,35.833 L2.8432,33.175 L1.6982,33.175 L1.6982,37 L2.5412,37 L2.5412,34.277 L2.5512,34.277 L4.2212,37 L5.3222,37 L5.3222,33.175 L4.4802,33.175 Z" id="Fill-1" sketch:type="MSShapeGroup"></path>
            <path d="M6.9633,33.175 L6.9633,37 L9.6593,37 L9.6593,36.221 L7.8053,36.221 L7.8053,35.443 L9.4643,35.443 L9.4643,34.665 L7.8053,34.665 L7.8053,33.952 L9.5613,33.952 L9.5613,33.175 L6.9633,33.175 Z" id="Fill-2" sketch:type="MSShapeGroup"></path>
            <path d="M11.5119,33.175 L11.5119,37 L14.2079,37 L14.2079,36.221 L12.3549,36.221 L12.3549,35.443 L14.0139,35.443 L14.0139,34.665 L12.3549,34.665 L12.3549,33.952 L14.1109,33.952 L14.1109,33.175 L11.5119,33.175 Z" id="Fill-3" sketch:type="MSShapeGroup"></path>
            <path d="M18.5904,33.175 L18.5904,35.833 L18.5784,35.833 L16.9534,33.175 L15.8074,33.175 L15.8074,37 L16.6514,37 L16.6514,34.277 L16.6614,34.277 L18.3314,37 L19.4334,37 L19.4334,33.175 L18.5904,33.175 Z" id="Fill-4" sketch:type="MSShapeGroup"></path>
            <path d="M21.9978,33.175 L20.3448,37 L21.2738,37 L21.5928,36.189 L23.0778,36.189 L23.4068,37 L24.3588,37 L22.6948,33.175 L21.9978,33.175 Z M22.3218,34.287 L22.7918,35.476 L21.8578,35.476 L22.3218,34.287 Z" id="Fill-5" sketch:type="MSShapeGroup"></path>
            <path d="M27.8451,33.175 L27.8451,34.601 L26.2081,34.601 L26.2081,33.175 L25.3651,33.175 L25.3651,37 L26.2081,37 L26.2081,35.347 L27.8451,35.347 L27.8451,37 L28.6881,37 L28.6881,33.175 L27.8451,33.175 Z" id="Fill-6" sketch:type="MSShapeGroup"></path>
            <path d="M21.9987,0.1144 L21.9987,21.2134 L21.9127,21.2134 L9.0067,0.1144 L-0.0003,0.1144 L-0.0003,30.4764 L6.6027,30.4764 L6.6027,8.8624 L6.6877,8.8624 L19.9407,30.4764 L28.6887,30.4764 L28.6887,0.1144 L21.9987,0.1144 Z" id="Fill-7" sketch:type="MSShapeGroup"></path>
        </g>
    </g>
</svg>