<?xml version="1.0" encoding="UTF-8" standalone="no"?>
<svg width="98px" height="35px" viewBox="0 0 98 35" version="1.1" xmlns="http://www.w3.org/2000/svg" xmlns:xlink="http://www.w3.org/1999/xlink" xmlns:sketch="http://www.bohemiancoding.com/sketch/ns">
    <!-- Generator: Sketch 3.4.1 (15681) - http://www.bohemiancoding.com/sketch -->
    <title>Page 1</title>
    <desc>Created with Sketch.</desc>
    <defs>
        <path id="path-1" d="M0,0.206 L97.939,0.206 L97.939,35 L0,35 L0,0.206 Z"></path>
    </defs>
    <g id="Page-1" stroke="none" stroke-width="1" fill="none" fill-rule="evenodd" sketch:type="MSPage">
        <g sketch:type="MSLayerGroup">
            <path d="M0,21.4086 C0.233,26.7286 4.776,28.4766 9.436,28.4766 C14.019,28.4766 18.601,26.7676 18.601,21.4866 C18.601,17.7586 15.455,16.5936 12.232,15.8556 C9.087,15.1176 5.98,14.8456 5.98,12.8656 C5.98,11.2346 7.805,11.0016 9.048,11.0016 C11.028,11.0016 12.659,11.5836 12.815,13.7196 L18.057,13.7196 C17.63,8.7876 13.591,7.3126 9.203,7.3126 C4.893,7.3126 0.466,8.6326 0.466,13.7586 C0.466,17.2926 3.65,18.4186 6.835,19.1176 C10.795,19.9716 13.087,20.5546 13.087,22.2236 C13.087,24.1656 11.067,24.7866 9.475,24.7866 C7.301,24.7866 5.281,23.8166 5.242,21.4086 L0,21.4086 Z" id="Fill-1" fill="#FFFFFF" sketch:type="MSShapeGroup"></path>
            <path d="M27.2671,14.0304 C27.4611,11.8554 28.8201,11.0014 30.9171,11.0014 C32.8591,11.0014 34.4901,11.3514 34.4901,13.7194 C34.4901,15.9724 31.3441,15.8554 27.9661,16.3604 C24.5491,16.8264 21.1311,17.9134 21.1311,22.4574 C21.1311,26.5734 24.1601,28.4764 27.9661,28.4764 C30.4121,28.4764 32.9751,27.8164 34.7231,25.9904 C34.7621,26.6514 34.9171,27.3114 35.1111,27.9324 L40.7031,27.9324 C40.1981,27.1174 40.0041,25.2914 40.0041,23.4664 L40.0041,13.0204 C40.0041,8.2054 35.1891,7.3124 31.1891,7.3124 C26.6851,7.3124 22.0631,8.8654 21.7531,14.0304 L27.2671,14.0304 Z M34.4901,20.1664 C34.4901,21.3694 34.3341,24.7874 30.0241,24.7874 C28.2381,24.7874 26.6461,24.2824 26.6461,22.2244 C26.6461,20.2044 28.1991,19.6224 29.9081,19.2724 C31.6161,18.9624 33.5581,18.9234 34.4901,18.1074 L34.4901,20.1664 Z" id="Fill-3" fill="#FFFFFF" sketch:type="MSShapeGroup"></path>
            <path d="M54.589,24.321 C51.016,24.321 49.774,21.214 49.774,17.952 C49.774,14.691 50.939,11.467 54.55,11.467 C58.084,11.467 59.365,14.768 59.365,17.952 C59.365,21.214 58.2,24.321 54.589,24.321 L54.589,24.321 Z M44.454,35 L49.968,35 L49.968,25.447 L50.046,25.447 C51.366,27.428 53.657,28.476 56.065,28.476 C61.928,28.476 64.88,23.467 64.88,18.108 C64.88,12.399 62.045,7.312 55.754,7.312 C53.269,7.312 51.094,8.283 49.774,10.419 L49.696,10.419 L49.696,7.856 L44.454,7.856 L44.454,35 Z" id="Fill-5" fill="#FFFFFF" sketch:type="MSShapeGroup"></path>
            <path d="M78.4968,24.321 C74.9238,24.321 73.6818,21.214 73.6818,17.952 C73.6818,14.691 74.8468,11.467 78.4578,11.467 C81.9918,11.467 83.2728,14.768 83.2728,17.952 C83.2728,21.214 82.1078,24.321 78.4968,24.321 L78.4968,24.321 Z M68.3618,35 L73.8758,35 L73.8758,25.447 L73.9538,25.447 C75.2738,27.428 77.5648,28.476 79.9728,28.476 C85.8358,28.476 88.7878,23.467 88.7878,18.108 C88.7878,12.399 85.9528,7.312 79.6618,7.312 C77.1768,7.312 75.0018,8.283 73.6818,10.419 L73.6038,10.419 L73.6038,7.856 L68.3618,7.856 L68.3618,35 Z" id="Fill-7" fill="#FFFFFF" sketch:type="MSShapeGroup"></path>
            <mask id="mask-2" sketch:name="Clip 10" fill="white">
                <use xlink:href="#path-1"></use>
            </mask>
            <g id="Clip-10"></g>
            <path d="M97.939,0.206 L92.425,0.206 L92.425,4.749 L97.939,4.749 L97.939,0.206 Z M92.425,27.932 L97.939,27.932 L97.939,7.856 L92.425,7.856 L92.425,27.932 Z" id="Fill-9" fill="#FFFFFF" sketch:type="MSShapeGroup" mask="url(#mask-2)"></path>
        </g>
    </g>
</svg>