<?xml version="1.0" encoding="UTF-8" standalone="no"?>
<svg width="20px" height="20px" viewBox="0 0 20 20" version="1.1" xmlns="http://www.w3.org/2000/svg" xmlns:xlink="http://www.w3.org/1999/xlink" xmlns:sketch="http://www.bohemiancoding.com/sketch/ns">
    <!-- Generator: Sketch 3.4.1 (15681) - http://www.bohemiancoding.com/sketch -->
    <title>Page 1</title>
    <desc>Created with Sketch.</desc>
    <defs></defs>
    <g id="Page-1" stroke="none" stroke-width="1" fill="none" fill-rule="evenodd" sketch:type="MSPage">
        <path d="M12.657,9.965 L10.924,9.965 L10.924,16.145 L8.354,16.145 L8.354,9.965 L7.133,9.965 L7.133,7.783 L8.354,7.783 L8.354,6.369 C8.354,5.358 8.834,3.777 10.946,3.777 L12.849,3.785 L12.849,5.904 L11.468,5.904 C11.243,5.904 10.924,6.018 10.924,6.498 L10.924,7.783 L12.881,7.783 L12.657,9.965 Z M10.007,0 C4.482,0 0,4.481 0,10.008 C0,15.534 4.482,20.013 10.007,20.013 C15.533,20.013 20.014,15.534 20.014,10.008 C20.014,4.481 15.533,0 10.007,0 L10.007,0 Z" fill="#231F1F" sketch:type="MSShapeGroup"></path>
    </g>
</svg>