<?xml version="1.0" encoding="UTF-8" standalone="no"?>
<svg width="20px" height="20px" viewBox="0 0 20 20" version="1.1" xmlns="http://www.w3.org/2000/svg" xmlns:xlink="http://www.w3.org/1999/xlink" xmlns:sketch="http://www.bohemiancoding.com/sketch/ns">
    <!-- Generator: Sketch 3.4.1 (15681) - http://www.bohemiancoding.com/sketch -->
    <title>Page 1</title>
    <desc>Created with Sketch.</desc>
    <defs>
        <path id="path-1" d="M0,0.987 L20.015,0.987 L20.015,21 L0,21"></path>
    </defs>
    <g id="Page-1" stroke="none" stroke-width="1" fill="none" fill-rule="evenodd" sketch:type="MSPage">
        <g sketch:type="MSLayerGroup" transform="translate(0.000000, -1.000000)">
            <mask id="mask-2" sketch:name="Clip 2" fill="white">
                <use xlink:href="#path-1"></use>
            </mask>
            <g id="Clip-2"></g>
            <path d="M12.6954,16.8222 C12.2834,16.8222 10.0014,16.7692 9.4174,16.7692 C8.8354,16.7692 5.7974,15.8222 5.7974,12.4782 C5.7974,11.8822 5.7944,11.2832 5.7944,10.6892 C5.7934,10.1322 5.7804,9.5792 5.7784,9.0252 L5.7784,8.5422 C5.7754,7.6992 5.7004,6.7532 5.9714,5.9442 C6.1804,5.3272 6.6694,5.0812 7.2734,5.0812 C8.7334,5.0812 8.8314,6.5692 8.8354,8.0652 L13.0564,8.0652 C13.7244,8.0652 14.2244,8.7432 14.2244,9.7792 C14.2244,10.8162 13.1424,11.0502 12.5764,11.0502 L8.7884,11.0502 C8.7704,11.6832 8.7494,12.2022 8.7494,12.5152 C8.7494,13.1772 9.0084,13.8922 10.6184,13.8922 L12.8864,13.8922 C13.4514,13.8922 14.2924,14.3202 14.2924,15.5172 C14.2924,16.7122 13.1104,16.8222 12.6954,16.8222 M10.0074,0.9872 C4.4784,0.9872 0.0004,5.4682 0.0004,10.9942 C0.0004,16.5212 4.4784,21.0002 10.0074,21.0002 C15.5354,21.0002 20.0144,16.5212 20.0144,10.9942 C20.0144,5.4682 15.5354,0.9872 10.0074,0.9872" id="Fill-1" fill="#231F1F" sketch:type="MSShapeGroup" mask="url(#mask-2)"></path>
        </g>
    </g>
</svg>