<?xml version="1.0" encoding="utf-8"?>
<!-- Generator: Adobe Illustrator 16.0.0, SVG Export Plug-In . SVG Version: 6.00 Build 0)  -->
<!DOCTYPE svg PUBLIC "-//W3C//DTD SVG 1.1//EN" "http://www.w3.org/Graphics/SVG/1.1/DTD/svg11.dtd">
<svg version="1.1" id="Layer_1" xmlns="http://www.w3.org/2000/svg" xmlns:xlink="http://www.w3.org/1999/xlink" x="0px" y="0px"
	 width="606.602px" height="43.578px" viewBox="0 0 606.602 43.578" enable-background="new 0 0 606.602 43.578"
	 xml:space="preserve">
<g>
	<path fill="#C2BC91" d="M21.339,42.802H0v-2.854c1.778,0,3.122-0.171,4.032-0.512c0.91-0.341,1.504-0.853,1.784-1.535
		c0.279-0.683,0.418-1.654,0.418-2.915V8.561c0-1.819-0.377-3.102-1.132-3.846C4.347,3.97,2.646,3.598,0,3.598V0.744h21.339v2.854
		c-1.779,0-3.123,0.176-4.032,0.527c-0.91,0.352-1.504,0.864-1.783,1.535c-0.279,0.672-0.419,1.639-0.419,2.9v26.426
		c0,1.199,0.134,2.14,0.403,2.822c0.269,0.682,0.842,1.209,1.721,1.582c0.879,0.371,2.249,0.558,4.11,0.558V42.802z"/>
	<path fill="#C2BC91" d="M71.468,3.598c-2.006,0-3.443,0.202-4.311,0.605C66.288,4.606,65.75,5.2,65.544,5.986
		c-0.207,0.786-0.31,2.068-0.31,3.846v33.342H62.38L34.869,10.483v23.169c0,1.758,0.109,3.034,0.326,3.83
		c0.217,0.797,0.77,1.406,1.66,1.83c0.889,0.424,2.326,0.636,4.311,0.636v2.854H25.533v-2.854c1.861,0,3.21-0.212,4.048-0.636
		s1.354-1.033,1.551-1.83c0.196-0.796,0.294-2.072,0.294-3.83V12.189c0-1.737-0.046-3.04-0.139-3.908
		c-0.093-0.869-0.316-1.628-0.667-2.28c-0.352-0.651-0.926-1.179-1.722-1.582c-0.796-0.403-1.897-0.677-3.303-0.822V0.744h12.251
		l23.945,28.288v-19.2c0-1.571-0.109-2.776-0.326-3.613c-0.217-0.837-0.755-1.483-1.613-1.938c-0.858-0.455-2.218-0.683-4.079-0.683
		V0.744h15.694V3.598z"/>
	<path fill="#C2BC91" d="M117.316,12.686h-2.946c-0.269-2.605-0.843-4.528-1.722-5.769s-1.825-2.005-2.838-2.295
		c-1.013-0.289-2.182-0.434-3.505-0.434h-5.335v30.8c0,1.22,0.124,2.166,0.373,2.838c0.248,0.672,0.827,1.193,1.737,1.566
		c0.91,0.371,2.243,0.558,4.001,0.558v2.854H85.99v-2.854c2.584,0,4.249-0.372,4.994-1.116c0.744-0.744,1.116-2.026,1.116-3.846
		v-30.8h-4.466c-1.758,0-3.215,0.14-4.373,0.419c-1.158,0.279-2.177,1.044-3.055,2.295c-0.879,1.251-1.38,3.179-1.504,5.785h-2.946
		V0.744h41.562V12.686z"/>
	<path fill="#C2BC91" d="M168.778,21.773c0,3.826-0.91,7.408-2.729,10.747c-1.82,3.34-4.513,6.018-8.08,8.033
		c-3.567,2.017-7.78,3.024-12.639,3.024c-3.97,0-7.465-0.642-10.483-1.923c-3.019-1.281-5.485-2.998-7.397-5.148
		s-3.329-4.508-4.249-7.072c-0.92-2.563-1.38-5.138-1.38-7.723c0-3.743,0.878-7.278,2.636-10.608
		c1.757-3.329,4.404-6.012,7.94-8.048C135.932,1.019,140.16,0,145.082,0c4.487,0,8.302,0.734,11.445,2.202s5.593,3.319,7.351,5.552
		c1.757,2.233,3.013,4.575,3.769,7.025C168.4,17.229,168.778,19.561,168.778,21.773z M158.729,21.649c0-2.357-0.202-4.591-0.604-6.7
		c-0.403-2.109-1.112-4.017-2.125-5.723c-1.013-1.706-2.399-3.06-4.156-4.063c-1.758-1.002-3.929-1.504-6.514-1.504
		c-3.557,0-6.333,0.884-8.328,2.652c-1.996,1.768-3.35,3.981-4.063,6.638c-0.713,2.657-1.07,5.557-1.07,8.7
		c0,1.737,0.113,3.546,0.341,5.428c0.227,1.882,0.775,3.81,1.644,5.785c0.869,1.975,2.253,3.639,4.156,4.993
		c1.902,1.354,4.363,2.032,7.382,2.032c2.998,0,5.433-0.698,7.304-2.094c1.872-1.396,3.236-3.102,4.094-5.118
		c0.858-2.017,1.396-3.944,1.613-5.784C158.62,25.051,158.729,23.304,158.729,21.649z"/>
	<path fill="#C2BC91" d="M234.08,12.686h-2.946c-0.269-2.605-0.843-4.528-1.722-5.769s-1.825-2.005-2.838-2.295
		c-1.013-0.289-2.182-0.434-3.505-0.434h-5.335v30.8c0,1.22,0.124,2.166,0.373,2.838c0.248,0.672,0.827,1.193,1.737,1.566
		c0.91,0.371,2.243,0.558,4.001,0.558v2.854h-21.091v-2.854c2.584,0,4.249-0.372,4.994-1.116c0.744-0.744,1.116-2.026,1.116-3.846
		v-30.8h-4.466c-1.758,0-3.215,0.14-4.373,0.419c-1.158,0.279-2.177,1.044-3.055,2.295c-0.879,1.251-1.38,3.179-1.504,5.785h-2.946
		V0.744h41.562V12.686z"/>
	<path fill="#C2BC91" d="M288.054,42.802h-20.688v-2.854c1.695,0,2.978-0.187,3.846-0.558c0.868-0.373,1.427-0.91,1.675-1.613
		s0.372-1.633,0.372-2.791V22.363H253.75v12.624c0,1.736,0.362,2.998,1.085,3.783c0.724,0.786,2.378,1.179,4.963,1.179v2.854
		h-20.843v-2.854c1.675,0,2.951-0.187,3.83-0.558c0.879-0.373,1.447-0.904,1.706-1.598c0.258-0.693,0.388-1.629,0.388-2.807V8.561
		c0-1.179-0.124-2.104-0.372-2.776c-0.248-0.671-0.796-1.204-1.644-1.597c-0.848-0.393-2.151-0.589-3.908-0.589V0.744h20.843v2.854
		c-2.564,0-4.213,0.383-4.947,1.147c-0.734,0.766-1.101,2.037-1.101,3.815V18.92h19.509V8.561c0-1.179-0.114-2.104-0.341-2.776
		c-0.228-0.671-0.765-1.204-1.613-1.597c-0.848-0.393-2.161-0.589-3.939-0.589V0.744h20.688v2.854c-1.758,0-3.061,0.197-3.908,0.589
		c-0.848,0.393-1.391,0.926-1.628,1.597c-0.238,0.672-0.356,1.598-0.356,2.776v26.426c0,1.137,0.108,2.041,0.326,2.713
		c0.217,0.672,0.76,1.215,1.628,1.629c0.869,0.414,2.182,0.62,3.939,0.62V42.802z"/>
	<path fill="#C2BC91" d="M330.583,28.969l-0.342,13.833h-37.467v-2.854c2.584,0,4.249-0.372,4.993-1.116
		c0.745-0.744,1.117-2.026,1.117-3.846V8.561c0-1.199-0.119-2.135-0.356-2.807c-0.238-0.672-0.796-1.199-1.675-1.582
		c-0.879-0.382-2.239-0.574-4.079-0.574V0.744h34.893l0.559,10.918h-2.854c-0.641-2.419-1.381-4.151-2.217-5.195
		c-0.838-1.044-1.779-1.685-2.822-1.923c-1.045-0.238-2.611-0.357-4.7-0.357h-7.878v14.857h4.28c1.468,0,2.564-0.129,3.288-0.388
		c0.724-0.258,1.23-0.75,1.52-1.474c0.29-0.723,0.485-1.861,0.589-3.412h2.977v13.988h-2.853c-0.083-1.551-0.29-2.693-0.62-3.427
		c-0.331-0.734-0.853-1.225-1.566-1.473s-1.804-0.372-3.272-0.372h-4.342v9.895c0,1.654,0.042,2.863,0.124,3.629
		c0.083,0.765,0.305,1.4,0.667,1.906c0.361,0.508,0.951,0.875,1.768,1.102c0.816,0.229,1.979,0.342,3.489,0.342h3.381
		c1.426,0,2.786-0.182,4.079-0.543c1.291-0.361,2.559-1.293,3.799-2.791c1.24-1.5,2.109-3.852,2.605-7.057H330.583z"/>
	<path fill="#C2BC91" d="M413.316,3.598c-1.509,0.124-2.61,0.372-3.303,0.745c-0.693,0.372-1.24,1.019-1.644,1.938
		c-0.403,0.92-0.937,2.569-1.598,4.947l-8.747,32.35h-4.311l-10.763-30.241l-10.08,30.241h-4.25l-9.738-33.25
		c-0.579-1.985-1.112-3.453-1.598-4.404c-0.486-0.951-1.055-1.576-1.706-1.876c-0.651-0.299-1.577-0.45-2.775-0.45V0.744h18.206
		v2.854c-1.427,0-2.471,0.114-3.133,0.341s-0.992,0.837-0.992,1.83c0,0.662,0.237,1.789,0.713,3.381l6.142,20.997l9.863-29.403
		h4.062l10.422,29.403l5.272-19.726c0.372-1.344,0.559-2.43,0.559-3.257c0-1.509-0.471-2.471-1.411-2.884
		c-0.941-0.414-2.146-0.641-3.613-0.683V0.744h14.422V3.598z"/>
	<path fill="#C2BC91" d="M463.321,21.773c0,3.826-0.91,7.408-2.729,10.747c-1.82,3.34-4.514,6.018-8.08,8.033
		c-3.566,2.017-7.78,3.024-12.639,3.024c-3.971,0-7.465-0.642-10.484-1.923c-3.019-1.281-5.484-2.998-7.396-5.148
		c-1.913-2.15-3.33-4.508-4.25-7.072c-0.92-2.563-1.38-5.138-1.38-7.723c0-3.743,0.879-7.278,2.637-10.608
		c1.757-3.329,4.404-6.012,7.939-8.048C430.474,1.019,434.703,0,439.624,0c4.487,0,8.302,0.734,11.445,2.202
		c3.143,1.468,5.593,3.319,7.351,5.552c1.758,2.233,3.014,4.575,3.769,7.025C462.943,17.229,463.321,19.561,463.321,21.773z
		 M453.271,21.649c0-2.357-0.201-4.591-0.604-6.7s-1.112-4.017-2.125-5.723c-1.013-1.706-2.398-3.06-4.156-4.063
		c-1.758-1.002-3.929-1.504-6.513-1.504c-3.557,0-6.333,0.884-8.328,2.652c-1.996,1.768-3.35,3.981-4.063,6.638
		c-0.713,2.657-1.07,5.557-1.07,8.7c0,1.737,0.114,3.546,0.342,5.428c0.228,1.882,0.775,3.81,1.644,5.785s2.254,3.639,4.156,4.993
		s4.362,2.032,7.382,2.032c2.998,0,5.433-0.698,7.305-2.094c1.871-1.396,3.235-3.102,4.094-5.118
		c0.857-2.017,1.396-3.944,1.613-5.784C453.163,25.051,453.271,23.304,453.271,21.649z"/>
	<path fill="#C2BC91" d="M517.823,21.773c0,3.826-0.91,7.408-2.729,10.747c-1.82,3.34-4.514,6.018-8.08,8.033
		c-3.566,2.017-7.78,3.024-12.639,3.024c-3.971,0-7.465-0.642-10.484-1.923c-3.019-1.281-5.484-2.998-7.396-5.148
		c-1.913-2.15-3.33-4.508-4.25-7.072c-0.92-2.563-1.38-5.138-1.38-7.723c0-3.743,0.879-7.278,2.637-10.608
		c1.757-3.329,4.404-6.012,7.939-8.048C484.976,1.019,489.205,0,494.125,0c4.487,0,8.302,0.734,11.445,2.202
		c3.143,1.468,5.593,3.319,7.351,5.552c1.758,2.233,3.014,4.575,3.769,7.025C517.445,17.229,517.823,19.561,517.823,21.773z
		 M507.773,21.649c0-2.357-0.201-4.591-0.604-6.7s-1.112-4.017-2.125-5.723c-1.013-1.706-2.398-3.06-4.156-4.063
		c-1.758-1.002-3.929-1.504-6.513-1.504c-3.557,0-6.333,0.884-8.328,2.652c-1.996,1.768-3.35,3.981-4.063,6.638
		c-0.713,2.657-1.07,5.557-1.07,8.7c0,1.737,0.114,3.546,0.342,5.428c0.228,1.882,0.775,3.81,1.644,5.785s2.254,3.639,4.156,4.993
		s4.362,2.032,7.382,2.032c2.998,0,5.433-0.698,7.305-2.094c1.871-1.396,3.235-3.102,4.094-5.118
		c0.857-2.017,1.396-3.944,1.613-5.784C507.665,25.051,507.773,23.304,507.773,21.649z"/>
	<path fill="#C2BC91" d="M568.384,22.146c0,3.04-0.518,5.785-1.551,8.235c-1.034,2.45-2.368,4.492-4.001,6.126
		c-1.634,1.633-3.381,2.863-5.242,3.69c-3.929,1.737-8.736,2.605-14.422,2.605h-19.199v-2.854c1.778,0,3.122-0.171,4.032-0.512
		c0.909-0.341,1.504-0.853,1.783-1.535s0.419-1.654,0.419-2.915V8.437c0-1.819-0.372-3.102-1.117-3.846
		c-0.744-0.745-2.45-1.117-5.117-1.117V0.558l9.025-0.186c0.311,0,1.571-0.021,3.784-0.062c2.212-0.041,3.494-0.062,3.846-0.062
		c3.453,0,6.384,0.186,8.793,0.558c2.409,0.373,4.616,0.972,6.622,1.799c1.841,0.744,3.536,1.783,5.087,3.117
		c1.551,1.334,2.858,2.854,3.924,4.56c1.064,1.706,1.887,3.562,2.466,5.567C568.094,17.855,568.384,19.954,568.384,22.146z
		 M558.335,21.959c0-4.363-0.833-8.018-2.497-10.964c-1.665-2.947-3.924-4.988-6.777-6.125c-1.24-0.497-2.559-0.812-3.954-0.946
		c-1.396-0.134-3.396-0.202-6.002-0.202V33.28c0,1.696,0.082,2.932,0.248,3.707c0.165,0.775,0.651,1.365,1.458,1.768
		c0.807,0.403,2.057,0.605,3.753,0.605c5.024,0,8.576-1.758,10.654-5.273C557.296,30.572,558.335,26.529,558.335,21.959z"/>
	<path fill="#C2BC91" d="M606.602,30.737c0,1.303-0.279,2.684-0.837,4.141c-0.559,1.458-1.401,2.854-2.528,4.188
		s-2.549,2.419-4.265,3.256c-1.717,0.838-3.701,1.257-5.955,1.257c-2.233,0-4.451-0.485-6.653-1.458
		c-2.202-0.971-4.068-2.419-5.598-4.342c-0.662,1.53-1.086,2.946-1.272,4.249h-2.853V27.635h2.853
		c0.517,2.068,1.23,4.012,2.141,5.831c0.909,1.819,2.197,3.386,3.861,4.699s3.707,1.97,6.126,1.97c2.109,0,3.8-0.579,5.071-1.737
		c1.271-1.157,1.907-2.616,1.907-4.373c0-0.993-0.196-1.861-0.589-2.605c-0.394-0.745-0.962-1.411-1.706-2.001
		c-0.745-0.589-1.764-1.22-3.056-1.892s-2.766-1.38-4.42-2.125c-2.543-1.199-4.632-2.409-6.265-3.629
		c-1.634-1.22-2.869-2.404-3.707-3.552c-0.837-1.147-1.416-2.238-1.736-3.272c-0.321-1.034-0.48-2.078-0.48-3.133
		c0-1.881,0.506-3.737,1.52-5.567c1.013-1.83,2.497-3.329,4.45-4.497C584.565,0.584,586.824,0,589.388,0
		c1.964,0,3.836,0.439,5.614,1.318c1.778,0.879,3.318,2.083,4.621,3.614c0.372-0.869,0.714-2.088,1.023-3.66h2.916v11.724h-2.916
		c-2.067-6.389-5.666-9.584-10.793-9.584c-1.861,0-3.355,0.491-4.482,1.473c-1.127,0.982-1.69,2.249-1.69,3.8
		c0,1.22,0.352,2.279,1.055,3.179c0.703,0.899,1.628,1.67,2.776,2.311c1.147,0.641,3.003,1.562,5.567,2.76
		c3.102,1.469,5.525,2.74,7.272,3.815c1.748,1.076,3.227,2.43,4.436,4.063C605.998,26.446,606.602,28.421,606.602,30.737z"/>
</g>
<g>
</g>
<g>
</g>
<g>
</g>
<g>
</g>
<g>
</g>
<g>
</g>
<g>
</g>
<g>
</g>
<g>
</g>
<g>
</g>
<g>
</g>
<g>
</g>
<g>
</g>
<g>
</g>
<g>
</g>
</svg>
