<?xml version="1.0" encoding="utf-8"?>
<!-- Generator: Adobe Illustrator 17.1.0, SVG Export Plug-In . SVG Version: 6.00 Build 0)  -->
<!DOCTYPE svg PUBLIC "-//W3C//DTD SVG 1.1//EN" "http://www.w3.org/Graphics/SVG/1.1/DTD/svg11.dtd">
<svg version="1.1" id="Layer_1" xmlns="http://www.w3.org/2000/svg" xmlns:xlink="http://www.w3.org/1999/xlink" x="0px" y="0px"
	 viewBox="0 0 50 50" enable-background="new 0 0 50 50" xml:space="preserve">
<rect fill="#F5F3EA" width="50" height="50"/>
<g>
	<g>
		<path fill="#231F20" stroke="#231F20" stroke-width="0.125" d="M14.591,30.954c-0.14-0.055-1.214-0.513-1.504-0.654
			c-0.308-0.149-0.324-0.381-0.336-0.575c0.124-0.179,0.244-11.342,0.114-11.433c-0.045-0.032-0.09-0.06-0.147-0.011
			c-0.186,0.18-10.975,11.942-11.175,12.068c-0.384,0.298-1.14,0.574-1.181,0.595c-0.019,0.01-0.195,0.06-0.195,0.079
			c0,0.018,0.176,0.009,0.208,0.009c0.022,0,5.632,0,5.684,0c0.084,0,0.099-0.073,0.039-0.086c-0.423-0.086-2.262-0.465-2.575-0.56
			c-0.305-0.089-0.337-0.273-0.222-0.437c0.109-0.16,3.01-3.749,3.221-3.909C6.787,25.838,6.9,25.808,7.367,25.8
			c0.143-0.002,1.007-0.019,1.834,0.003c0.69,0.017,1.355,0.073,1.554,0.091c0.432,0.035,0.382,0.355,0.382,0.518
			c0,0.161-0.123,2.792-0.134,3.241c-0.011,0.462-0.093,0.525-0.39,0.631c-0.147,0.043-2.087,0.666-2.157,0.699
			c-0.066,0.03,0.023,0.052,0.023,0.052s5.997,0,6.039,0C14.609,31.033,14.643,30.977,14.591,30.954z M11.188,24.928
			c0,0.248-0.108,0.399-0.521,0.399c-0.411,0-2.943-0.011-2.943-0.011c-0.453-0.004-0.44-0.252-0.272-0.44
			c0.168-0.187,3.253-3.503,3.367-3.633c0.223-0.252,0.417-0.239,0.417,0.101C11.236,21.69,11.188,24.76,11.188,24.928z"/>
	</g>
	<g>
		<path fill="#231F20" stroke="#231F20" stroke-width="0.125" d="M47.675,30.954c-0.139-0.055-1.212-0.513-1.501-0.654
			c-0.308-0.149-0.325-0.381-0.337-0.575c-0.006-0.176,0.158-11.339,0.112-11.433c-0.025-0.048-0.088-0.06-0.146-0.011
			c-0.184,0.18-10.974,11.942-11.174,12.068c-0.384,0.298-1.141,0.574-1.181,0.595c-0.038,0.022-0.051,0.088,0.012,0.088
			c0.024,0,5.631,0,5.685,0c0.083,0,0.097-0.073,0.038-0.086c-0.421-0.086-2.261-0.465-2.574-0.56
			c-0.304-0.089-0.338-0.273-0.222-0.437c0.112-0.16,3.011-3.749,3.221-3.909c0.265-0.203,0.377-0.233,0.844-0.242
			c0.145-0.002,1.009-0.019,1.835,0.003c0.69,0.017,1.355,0.073,1.555,0.091c0.431,0.035,0.382,0.355,0.382,0.518
			c0,0.161-0.125,2.792-0.134,3.241c-0.013,0.462-0.093,0.525-0.388,0.631c-0.147,0.043-2.089,0.666-2.159,0.699
			c-0.065,0.03,0.022,0.052,0.022,0.052s5.999,0,6.04,0C47.694,31.033,47.729,30.977,47.675,30.954z M44.272,24.928
			c0,0.248-0.109,0.399-0.521,0.399c-0.41,0-2.942-0.011-2.942-0.011c-0.454-0.004-0.441-0.252-0.273-0.44
			c0.17-0.187,3.254-3.503,3.369-3.633c0.223-0.252,0.416-0.239,0.416,0.101C44.32,21.69,44.272,24.76,44.272,24.928z"/>
	</g>
	<path fill="#231F20" stroke="#231F20" stroke-width="0.125" d="M17.308,18.681c0.051,0,5.808,0,5.871,0
		c0.061,0,0.127,0.046,0.039,0.072c-0.086,0.026-1.043,0.304-1.15,0.336c-0.118,0.036-0.467,0.148-0.646,0.229
		c-0.296,0.132-0.402,0.289-0.475,0.519c-0.058,0.184-2.342,9.803-2.374,9.969c-0.042,0.219-0.055,0.406,0.202,0.508
		c0.258,0.101,1.553,0.565,1.659,0.605c0.107,0.04,0.08,0.113-0.035,0.113c-0.112,0-5.503,0-5.59,0
		c-0.109,0-0.158-0.035-0.068-0.078c0.116-0.053,1.347-0.493,1.473-0.544c0.126-0.049,0.445-0.168,0.533-0.454
		c0.063-0.205,2.41-9.877,2.453-10.06c0.054-0.237,0.029-0.476-0.246-0.574c-0.149-0.053-1.585-0.545-1.637-0.563
		C17.233,18.733,17.233,18.681,17.308,18.681z"/>
	<path fill="#231F20" stroke="#231F20" stroke-width="0.125" d="M33.98,23.102c-0.003-0.073,0.142-3.127,0.139-3.255
		c-0.009-0.321-0.009-0.519-0.365-0.634c-0.5-0.163-2.895-0.365-4.658,0.454c-2.96,1.378-4.679,4.563-4.334,7.11
		c0.284,2.093,1.949,3.798,4.599,3.87c0.834,0.022,1.442-0.102,1.622-0.155c0.267-0.08,0.302-0.155,0.359-0.312
		c0.058-0.157,0.503-2.023,0.52-2.103c0.015-0.08,0.132-0.341-0.14-0.415c-0.272-0.072-2.67-0.72-2.798-0.755
		c-0.129-0.037-0.07-0.099,0.029-0.099c0.098,0,4.326,0,4.507,0c0.181,0,0.654-0.046,0.526,0.407
		c-0.126,0.453-0.815,2.603-0.874,2.755c-0.056,0.153-0.185,0.237-0.349,0.296c-0.165,0.062-2.121,0.817-4.024,0.866
		c-4.871,0.128-6.655-3.273-5.82-6.369c0.438-1.628,1.507-3.162,2.865-4.228c0.781-0.613,3.09-2.039,6.092-2.039
		c0.569,0,2.023,0.072,3.085,0.349c0.519,0.136,0.443,0.421,0.384,0.632c-0.03,0.11-1.176,3.549-1.211,3.638
		C34.087,23.238,33.984,23.245,33.98,23.102z"/>
</g>
</svg>
