<?xml version="1.0" encoding="utf-8"?>
<!-- Generator: Adobe Illustrator 17.1.0, SVG Export Plug-In . SVG Version: 6.00 Build 0)  -->
<!DOCTYPE svg PUBLIC "-//W3C//DTD SVG 1.1//EN" "http://www.w3.org/Graphics/SVG/1.1/DTD/svg11.dtd">
<svg version="1.1" id="Layer_1" xmlns="http://www.w3.org/2000/svg" xmlns:xlink="http://www.w3.org/1999/xlink" x="0px" y="0px"
	 viewBox="0 0 43 43" enable-background="new 0 0 43 43" xml:space="preserve">
<g>
	<rect x="0.078" y="0.021" fill="#F5F3EA" width="42.96" height="42.959"/>
	<path fill="#231F20" d="M12.43,26.779c-0.121-0.05-1.05-0.445-1.299-0.566c-0.267-0.128-0.281-0.328-0.291-0.495
		c-0.005-0.154,0.137-9.805,0.098-9.885c-0.022-0.043-0.078-0.051-0.126-0.01c-0.161,0.156-9.488,10.322-9.66,10.433
		c-0.332,0.256-0.985,0.495-1.021,0.513c-0.016,0.01-0.169,0.053-0.169,0.053s0.152,0.022,0.18,0.022h4.913
		c0.073,0,0.086-0.063,0.034-0.072c-0.365-0.077-1.955-0.403-2.226-0.484C2.6,26.21,2.571,26.052,2.672,25.909
		c0.094-0.136,2.602-3.24,2.783-3.376c0.228-0.177,0.327-0.203,0.73-0.21c0.124-0.003,0.871-0.018,1.586,0.001
		c0.597,0.014,1.171,0.065,1.344,0.078c0.373,0.031,0.33,0.307,0.33,0.447c0,0.141-0.107,2.416-0.116,2.802
		c-0.009,0.401-0.08,0.454-0.336,0.546c-0.127,0.038-1.804,0.575-1.866,0.603c-0.056,0.027,0.02,0.044,0.02,0.044h5.22
		C12.444,26.844,12.475,26.795,12.43,26.779 M9.487,21.569c0,0.215-0.093,0.345-0.45,0.345c-0.355,0-2.544-0.008-2.544-0.008
		c-0.391-0.006-0.381-0.219-0.235-0.382c0.145-0.162,2.812-3.028,2.91-3.14c0.193-0.218,0.361-0.207,0.361,0.087
		C9.529,18.768,9.487,21.424,9.487,21.569"/>
	<path fill="#231F20" d="M41.028,26.779c-0.12-0.05-1.047-0.445-1.297-0.566c-0.267-0.128-0.282-0.328-0.291-0.495
		c-0.007-0.154,0.137-9.805,0.096-9.885c-0.021-0.043-0.076-0.051-0.126-0.01c-0.16,0.156-9.485,10.322-9.659,10.433
		c-0.331,0.256-0.985,0.495-1.021,0.513c-0.032,0.019-0.044,0.075,0.011,0.075h4.914c0.071,0,0.085-0.063,0.032-0.072
		c-0.364-0.077-1.954-0.403-2.225-0.484c-0.263-0.078-0.291-0.236-0.191-0.379c0.096-0.136,2.602-3.24,2.784-3.376
		c0.228-0.177,0.326-0.203,0.729-0.21c0.125-0.003,0.872-0.018,1.587,0.001c0.596,0.014,1.171,0.065,1.344,0.078
		c0.372,0.031,0.33,0.307,0.33,0.447c0,0.141-0.108,2.416-0.116,2.802c-0.011,0.401-0.08,0.454-0.336,0.546
		c-0.127,0.038-1.805,0.575-1.865,0.603c-0.057,0.027,0.018,0.044,0.018,0.044h5.221C41.045,26.844,41.075,26.795,41.028,26.779
		 M38.086,21.569c0,0.215-0.093,0.345-0.45,0.345c-0.353,0-2.544-0.008-2.544-0.008c-0.392-0.006-0.381-0.219-0.235-0.382
		c0.146-0.162,2.813-3.028,2.911-3.14c0.193-0.218,0.36-0.207,0.36,0.087C38.128,18.768,38.086,21.424,38.086,21.569"/>
	<path fill="#231F20" d="M14.778,16.17h5.075c0.053,0,0.11,0.038,0.033,0.06c-0.074,0.022-0.901,0.263-0.994,0.292
		c-0.101,0.031-0.404,0.127-0.558,0.197c-0.255,0.115-0.348,0.249-0.411,0.449c-0.05,0.159-2.025,8.474-2.053,8.618
		c-0.036,0.19-0.047,0.35,0.175,0.439c0.222,0.086,1.343,0.489,1.434,0.522c0.092,0.034,0.069,0.097-0.03,0.097h-4.832
		c-0.094,0-0.137-0.029-0.059-0.066c0.101-0.046,1.164-0.425,1.274-0.469c0.108-0.043,0.385-0.147,0.461-0.393
		c0.055-0.177,2.084-8.538,2.119-8.696c0.048-0.206,0.026-0.412-0.212-0.497c-0.129-0.044-1.371-0.471-1.415-0.486
		C14.713,16.212,14.713,16.17,14.778,16.17"/>
	<path fill="#231F20" d="M29.191,19.989c-0.003-0.062,0.122-2.702,0.12-2.813c-0.007-0.278-0.007-0.447-0.315-0.547
		c-0.433-0.141-2.502-0.315-4.027,0.392c-2.558,1.191-4.044,3.946-3.745,6.145c0.244,1.81,1.684,3.284,3.975,3.345
		c0.72,0.02,1.247-0.087,1.402-0.132c0.229-0.07,0.261-0.136,0.309-0.27c0.052-0.137,0.437-1.749,0.45-1.818
		c0.014-0.07,0.114-0.295-0.121-0.358c-0.234-0.063-2.307-0.625-2.418-0.655c-0.112-0.031-0.06-0.084,0.025-0.084h3.895
		c0.158,0,0.567-0.042,0.456,0.351c-0.108,0.392-0.705,2.249-0.754,2.381c-0.05,0.134-0.16,0.206-0.302,0.257
		c-0.143,0.052-1.835,0.706-3.479,0.749c-4.21,0.109-5.753-2.83-5.03-5.507c0.378-1.406,1.302-2.732,2.476-3.656
		c0.675-0.527,2.671-1.762,5.266-1.762c0.492,0,1.749,0.065,2.668,0.303c0.447,0.117,0.382,0.364,0.331,0.547
		c-0.027,0.095-1.016,3.069-1.047,3.144C29.283,20.108,29.194,20.114,29.191,19.989"/>
</g>
</svg>
