<?xml version="1.0" encoding="utf-8"?>
<!-- Generator: Adobe Illustrator 17.1.0, SVG Export Plug-In . SVG Version: 6.00 Build 0)  -->
<!DOCTYPE svg PUBLIC "-//W3C//DTD SVG 1.1//EN" "http://www.w3.org/Graphics/SVG/1.1/DTD/svg11.dtd">
<svg version="1.1" id="Layer_1" xmlns="http://www.w3.org/2000/svg" xmlns:xlink="http://www.w3.org/1999/xlink" x="0px" y="0px"
	 viewBox="0 0 515 40" enable-background="new 0 0 515 40" xml:space="preserve">
<g>
	<polygon fill="#231F20" points="222.327,16.028 201.317,16.028 201.317,1.213 195.93,1.213 195.93,38.922 201.317,38.922 
		201.317,21.146 222.327,21.146 222.327,33.762 227.714,28.375 227.714,1.213 222.327,1.213 	"/>
	<polygon fill="#231F20" points="75.768,32.955 81.155,27.568 81.155,6.331 91.39,6.331 91.39,1.213 65.533,1.213 65.533,6.331 
		75.768,6.331 	"/>
	<path fill="#231F20" d="M49.11,1.213v25.711l5.386-5.387V1.213H49.11z M22.713,1.213v37.709H28.1V11.233L44.604,31.43l3.616-3.616
		L26.484,1.213H22.713z"/>
	<polygon fill="#231F20" points="7.633,1.213 2.246,1.213 2.246,30.943 7.633,25.556 	"/>
	<path fill="#231F20" d="M108.751,31.798c-3.482-2.524-5.671-6.773-5.671-11.823c-0.001-8.15,5.776-14.303,13.494-14.303
		c5.046,0,9.261,2.63,11.575,6.728l3.855-3.855c-3.379-4.898-8.945-8.001-15.43-8.001c-10.688,0-18.892,8.421-18.892,19.431
		c0,6.473,2.837,12.049,7.345,15.547L108.751,31.798z"/>
	<polygon fill="#231F20" points="174.657,27.297 174.657,6.331 184.893,6.331 184.892,1.213 159.035,1.213 159.035,6.331 
		169.27,6.331 169.27,32.684 	"/>
	<polygon fill="#231F20" points="254.112,33.804 248.178,33.804 248.178,21.145 260.567,21.145 260.567,16.028 248.178,16.028 
		248.178,6.33 264.338,6.33 264.338,1.212 242.79,1.212 242.79,38.922 248.994,38.922 	"/>
	<path fill="#231F20" d="M507.922,8.132l3.203-3.963c-1.523-1.276-3.827-2.801-6.957-3.464l-5.084,5.084
		c0.662-0.173,1.357-0.263,2.053-0.263C503.525,5.526,505.859,6.395,507.922,8.132"/>
	<path fill="#231F20" d="M512.754,28.436c0-4.343-2.389-7.003-4.94-8.686c-4.886-3.257-12.975-4.289-12.975-9.12
		c0-0.222,0.019-0.434,0.047-0.642l-4.567,4.567c0.868,1.8,2.281,3.189,3.923,4.272c5.049,3.312,13.083,3.963,13.083,9.772
		c0,3.42-3.094,5.7-6.623,5.7c-3.909,0-7.057-2.172-9.283-4.886l-3.746,3.692c3.366,4.071,8.089,6.351,13.3,6.351
		C507.596,39.456,512.754,35.113,512.754,28.436"/>
	<path fill="#231F20" d="M468.324,4.899c-3.064-2.258-6.934-3.548-12.901-3.548h-11.289v37.628h10.74l5.39-5.39
		c-1.378,0.191-3.03,0.284-5.11,0.284h-5.644V6.458h5.644c5.268,0,8.386,1.129,10.751,3.171c2.849,2.527,4.461,6.345,4.569,10.536
		c0.03,1.172-0.05,2.326-0.221,3.436l5.484-5.484C475.178,12.717,472.434,7.957,468.324,4.899"/>
	<path fill="#231F20" d="M373.288,3.302l-3.793,3.793c4.444,2.279,7.358,7.034,7.358,12.809c0,8.189-5.764,14.276-13.468,14.276
		c-5.763,0-10.421-3.419-12.409-8.566l-4.011,4.011c3.188,5.85,9.235,9.673,16.42,9.673c10.667,0,18.855-8.404,18.855-19.394
		C382.24,12.707,378.711,6.644,373.288,3.302"/>
	<path fill="#231F20" d="M418.011,2.402l-3.901,3.901c5.149,1.976,8.622,7.071,8.622,13.378c0,8.189-5.763,14.276-13.467,14.276
		c-6.261,0-11.24-4.021-12.886-9.923l-4.143,4.143c2.982,6.534,9.354,10.898,17.029,10.898c10.666,0,18.855-8.404,18.855-19.394
		C428.12,11.98,424.09,5.561,418.011,2.402"/>
	<polygon fill="#231F20" points="331.503,1.049 323.045,28.362 313.834,1.049 310.063,1.049 300.851,28.362 296.696,14.944 
		292.564,19.076 298.75,38.758 302.52,38.758 311.948,10.854 321.375,38.758 325.146,38.758 336.997,1.049 	"/>
</g>
</svg>
