<?xml version="1.0" encoding="utf-8"?>
<!-- Generator: Adobe Illustrator 16.0.0, SVG Export Plug-In . SVG Version: 6.00 Build 0)  -->
<!DOCTYPE svg PUBLIC "-//W3C//DTD SVG 1.1//EN" "http://www.w3.org/Graphics/SVG/1.1/DTD/svg11.dtd">
<svg version="1.1" id="Layer_1" xmlns="http://www.w3.org/2000/svg" xmlns:xlink="http://www.w3.org/1999/xlink" x="0px" y="0px"
	 width="257px" height="95.408px" viewBox="0 0 257 95.408" enable-background="new 0 0 257 95.408" xml:space="preserve">
<g>
	<path fill="#BAB688" d="M17.395,33.049H0.934v-2.201c1.371,0,2.408-0.132,3.109-0.395c0.702-0.264,1.161-0.658,1.376-1.185
		c0.216-0.526,0.323-1.276,0.323-2.249V6.635c0-1.403-0.291-2.393-0.873-2.967C4.286,3.094,2.975,2.807,0.934,2.807V0.605h16.461
		v2.201c-1.372,0-2.409,0.136-3.111,0.406c-0.701,0.271-1.16,0.667-1.375,1.185c-0.216,0.519-0.323,1.265-0.323,2.237V27.02
		c0,0.925,0.104,1.65,0.312,2.178c0.207,0.525,0.649,0.933,1.327,1.22s1.735,0.431,3.171,0.431V33.049z"/>
	<path fill="#BAB688" d="M56.062,2.807c-1.547,0-2.656,0.155-3.326,0.467c-0.67,0.311-1.084,0.77-1.244,1.375
		c-0.159,0.606-0.238,1.596-0.238,2.967v25.721h-2.201L27.83,8.118V25.99c0,1.356,0.084,2.342,0.251,2.955
		c0.168,0.614,0.595,1.085,1.28,1.412s1.795,0.49,3.326,0.49v2.201H20.629v-2.201c1.436,0,2.476-0.163,3.122-0.49
		c0.646-0.327,1.044-0.798,1.196-1.412c0.151-0.613,0.227-1.599,0.227-2.955V9.434c0-1.34-0.035-2.344-0.107-3.014
		c-0.071-0.67-0.243-1.257-0.514-1.759c-0.271-0.503-0.715-0.909-1.328-1.221c-0.614-0.311-1.464-0.522-2.549-0.634V0.605h9.451
		l18.471,21.82V7.615c0-1.212-0.084-2.141-0.251-2.787c-0.168-0.646-0.583-1.145-1.244-1.495c-0.662-0.351-1.711-0.526-3.146-0.526
		V0.605h12.106V2.807z"/>
	<path fill="#BAB688" d="M91.431,9.816h-2.273c-0.207-2.01-0.65-3.492-1.328-4.449s-1.407-1.548-2.189-1.771
		c-0.781-0.223-1.683-0.334-2.703-0.334h-4.115V27.02c0,0.941,0.096,1.671,0.287,2.189s0.638,0.921,1.34,1.208
		s1.73,0.431,3.086,0.431v2.201h-16.27v-2.201c1.994,0,3.278-0.287,3.853-0.861s0.861-1.563,0.861-2.967V3.262h-3.445
		c-1.355,0-2.48,0.107-3.374,0.322C64.267,3.8,63.48,4.39,62.803,5.354c-0.678,0.966-1.064,2.452-1.16,4.462H59.37V0.605h32.061
		V9.816z"/>
	<path fill="#BAB688" d="M131.127,16.827c0,2.951-0.702,5.715-2.105,8.29c-1.403,2.576-3.481,4.642-6.232,6.197
		c-2.752,1.555-6.002,2.332-9.75,2.332c-3.062,0-5.758-0.494-8.087-1.482c-2.329-0.989-4.231-2.313-5.706-3.973
		c-1.476-1.658-2.568-3.477-3.278-5.455c-0.71-1.978-1.064-3.963-1.064-5.957c0-2.887,0.678-5.614,2.033-8.183
		c1.356-2.568,3.398-4.638,6.125-6.209c2.729-1.57,5.99-2.356,9.786-2.356c3.461,0,6.404,0.566,8.829,1.699
		c2.424,1.132,4.314,2.56,5.67,4.282s2.324,3.529,2.907,5.419C130.836,13.322,131.127,15.12,131.127,16.827z M123.375,16.731
		c0-1.818-0.155-3.541-0.467-5.168c-0.311-1.627-0.857-3.099-1.639-4.414c-0.781-1.316-1.851-2.36-3.206-3.135
		c-1.355-0.773-3.03-1.16-5.024-1.16c-2.743,0-4.885,0.682-6.424,2.046c-1.54,1.363-2.584,3.07-3.135,5.12
		c-0.55,2.05-0.825,4.286-0.825,6.711c0,1.34,0.088,2.735,0.264,4.187c0.175,1.452,0.598,2.939,1.268,4.463s1.738,2.808,3.206,3.852
		c1.468,1.045,3.365,1.567,5.694,1.567c2.312,0,4.19-0.538,5.635-1.615c1.443-1.076,2.496-2.393,3.158-3.947
		c0.661-1.556,1.076-3.043,1.244-4.462C123.291,19.355,123.375,18.008,123.375,16.731z"/>
	<path fill="#BAB688" d="M181.502,9.816h-2.273c-0.207-2.01-0.65-3.492-1.328-4.449s-1.407-1.548-2.189-1.771
		c-0.781-0.223-1.683-0.334-2.703-0.334h-4.115V27.02c0,0.941,0.096,1.671,0.287,2.189s0.638,0.921,1.34,1.208
		s1.73,0.431,3.086,0.431v2.201h-16.27v-2.201c1.994,0,3.278-0.287,3.853-0.861s0.861-1.563,0.861-2.967V3.262h-3.445
		c-1.355,0-2.48,0.107-3.374,0.322c-0.893,0.216-1.679,0.806-2.356,1.771c-0.678,0.966-1.064,2.452-1.16,4.462h-2.272V0.605h32.061
		V9.816z"/>
	<path fill="#BAB688" d="M223.136,33.049h-15.958v-2.201c1.308,0,2.297-0.144,2.967-0.431s1.1-0.702,1.291-1.244
		s0.287-1.26,0.287-2.153v-9.738h-15.049v9.738c0,1.34,0.279,2.312,0.838,2.919c0.558,0.606,1.834,0.909,3.828,0.909v2.201h-16.078
		v-2.201c1.291,0,2.276-0.144,2.954-0.431s1.116-0.697,1.316-1.232c0.199-0.534,0.299-1.256,0.299-2.165V6.635
		c0-0.909-0.096-1.623-0.287-2.142c-0.191-0.518-0.614-0.929-1.269-1.231c-0.653-0.304-1.658-0.455-3.014-0.455V0.605h16.078v2.201
		c-1.979,0-3.251,0.295-3.816,0.885c-0.566,0.591-0.85,1.571-0.85,2.943v7.991h15.049V6.635c0-0.909-0.087-1.623-0.263-2.142
		c-0.176-0.518-0.59-0.929-1.244-1.231c-0.654-0.304-1.667-0.455-3.038-0.455V0.605h15.958v2.201c-1.355,0-2.36,0.151-3.015,0.455
		c-0.654,0.303-1.073,0.714-1.256,1.231c-0.184,0.519-0.275,1.232-0.275,2.142V27.02c0,0.877,0.084,1.575,0.251,2.094
		c0.168,0.519,0.587,0.937,1.257,1.256s1.683,0.479,3.038,0.479V33.049z"/>
	<path fill="#BAB688" d="M255.944,22.378l-0.264,10.671h-28.902v-2.201c1.994,0,3.278-0.287,3.853-0.861s0.861-1.563,0.861-2.967
		V6.635c0-0.925-0.092-1.646-0.275-2.165s-0.614-0.925-1.292-1.221c-0.678-0.295-1.727-0.442-3.146-0.442V0.605h26.917l0.431,8.422
		h-2.201c-0.494-1.866-1.064-3.202-1.711-4.008c-0.646-0.805-1.372-1.3-2.177-1.483c-0.806-0.183-2.014-0.274-3.625-0.274h-6.077
		v11.46h3.302c1.133,0,1.978-0.1,2.536-0.299s0.949-0.578,1.172-1.137c0.224-0.559,0.375-1.436,0.455-2.632h2.297v10.791h-2.201
		c-0.063-1.197-0.224-2.078-0.479-2.645c-0.255-0.565-0.658-0.945-1.208-1.137c-0.551-0.191-1.392-0.287-2.524-0.287h-3.35v7.633
		c0,1.276,0.032,2.209,0.096,2.799c0.063,0.591,0.235,1.081,0.515,1.472c0.278,0.392,0.733,0.674,1.363,0.85
		s1.527,0.263,2.692,0.263h2.607c1.101,0,2.149-0.139,3.146-0.418c0.996-0.279,1.974-0.997,2.931-2.153s1.627-2.971,2.01-5.443
		H255.944z"/>
	<path fill="#BAB688" d="M61.35,54.069c-1.509,0.124-2.61,0.372-3.303,0.744c-0.693,0.372-1.24,1.019-1.644,1.938
		s-0.937,2.569-1.598,4.947l-8.747,32.35h-4.311L30.985,63.808l-10.08,30.241h-4.25L6.917,60.8
		c-0.579-1.985-1.112-3.453-1.598-4.404c-0.486-0.951-1.055-1.577-1.706-1.877s-1.577-0.449-2.775-0.449v-2.854h18.206v2.854
		c-1.427,0-2.471,0.113-3.133,0.341s-0.992,0.838-0.992,1.83c0,0.662,0.237,1.789,0.713,3.381l6.142,20.998l9.863-29.403h4.062
		l10.422,29.403l5.272-19.727c0.372-1.344,0.559-2.43,0.559-3.257c0-1.509-0.471-2.471-1.411-2.885
		c-0.941-0.413-2.146-0.641-3.613-0.682v-2.854H61.35V54.069z"/>
	<path fill="#BAB688" d="M111.354,72.244c0,3.826-0.91,7.408-2.729,10.747c-1.82,3.34-4.514,6.018-8.08,8.033
		c-3.566,2.017-7.78,3.024-12.639,3.024c-3.971,0-7.465-0.642-10.484-1.923c-3.019-1.282-5.484-2.998-7.396-5.148
		c-1.913-2.15-3.33-4.508-4.25-7.072c-0.92-2.563-1.38-5.138-1.38-7.723c0-3.742,0.879-7.278,2.637-10.607
		c1.757-3.329,4.404-6.012,7.939-8.049c3.536-2.036,7.765-3.056,12.686-3.056c4.487,0,8.302,0.734,11.445,2.202
		c3.143,1.469,5.593,3.319,7.351,5.553c1.758,2.232,3.014,4.574,3.769,7.024S111.354,70.032,111.354,72.244z M101.305,72.12
		c0-2.357-0.201-4.59-0.604-6.699s-1.112-4.017-2.125-5.723s-2.398-3.06-4.156-4.062s-3.929-1.505-6.513-1.505
		c-3.557,0-6.333,0.884-8.328,2.652c-1.996,1.768-3.35,3.98-4.063,6.637c-0.713,2.657-1.07,5.558-1.07,8.7
		c0,1.737,0.114,3.547,0.342,5.428c0.228,1.882,0.775,3.811,1.644,5.785s2.254,3.64,4.156,4.993
		c1.902,1.354,4.362,2.032,7.382,2.032c2.998,0,5.433-0.698,7.305-2.094c1.871-1.396,3.235-3.102,4.094-5.118
		c0.857-2.016,1.396-3.943,1.613-5.784C101.196,75.522,101.305,73.775,101.305,72.12z"/>
	<path fill="#BAB688" d="M165.856,72.244c0,3.826-0.91,7.408-2.729,10.747c-1.82,3.34-4.514,6.018-8.08,8.033
		c-3.566,2.017-7.78,3.024-12.639,3.024c-3.971,0-7.465-0.642-10.484-1.923c-3.019-1.282-5.484-2.998-7.396-5.148
		c-1.913-2.15-3.33-4.508-4.25-7.072c-0.92-2.563-1.38-5.138-1.38-7.723c0-3.742,0.879-7.278,2.637-10.607
		c1.757-3.329,4.404-6.012,7.939-8.049c3.536-2.036,7.765-3.056,12.686-3.056c4.487,0,8.302,0.734,11.445,2.202
		c3.143,1.469,5.593,3.319,7.351,5.553c1.758,2.232,3.014,4.574,3.769,7.024S165.856,70.032,165.856,72.244z M155.807,72.12
		c0-2.357-0.201-4.59-0.604-6.699s-1.112-4.017-2.125-5.723s-2.398-3.06-4.156-4.062s-3.929-1.505-6.513-1.505
		c-3.557,0-6.333,0.884-8.328,2.652c-1.996,1.768-3.35,3.98-4.063,6.637c-0.713,2.657-1.07,5.558-1.07,8.7
		c0,1.737,0.114,3.547,0.342,5.428c0.228,1.882,0.775,3.811,1.644,5.785s2.254,3.64,4.156,4.993
		c1.902,1.354,4.362,2.032,7.382,2.032c2.998,0,5.433-0.698,7.305-2.094c1.871-1.396,3.235-3.102,4.094-5.118
		c0.857-2.016,1.396-3.943,1.613-5.784C155.698,75.522,155.807,73.775,155.807,72.12z"/>
	<path fill="#BAB688" d="M216.419,72.616c0,3.04-0.518,5.785-1.551,8.235c-1.034,2.45-2.368,4.492-4.001,6.126
		c-1.634,1.633-3.381,2.863-5.242,3.69c-3.929,1.737-8.736,2.605-14.422,2.605h-19.199V90.42c1.778,0,3.122-0.171,4.032-0.512
		c0.909-0.341,1.504-0.853,1.783-1.535s0.419-1.654,0.419-2.916v-26.55c0-1.819-0.372-3.102-1.117-3.846
		c-0.744-0.744-2.45-1.116-5.117-1.116v-2.916l9.025-0.186c0.311,0,1.571-0.021,3.784-0.062c2.212-0.041,3.494-0.062,3.846-0.062
		c3.453,0,6.384,0.187,8.793,0.559s4.616,0.973,6.622,1.799c1.841,0.745,3.536,1.783,5.087,3.117s2.858,2.854,3.924,4.56
		c1.064,1.706,1.887,3.562,2.466,5.567C216.129,68.326,216.419,70.425,216.419,72.616z M206.37,72.431
		c0-4.362-0.833-8.018-2.497-10.964c-1.665-2.947-3.924-4.988-6.777-6.126c-1.24-0.496-2.559-0.812-3.954-0.946
		c-1.396-0.134-3.396-0.201-6.002-0.201v29.558c0,1.696,0.082,2.932,0.248,3.707c0.165,0.775,0.651,1.364,1.458,1.768
		s2.057,0.605,3.753,0.605c5.024,0,8.576-1.758,10.654-5.273C205.331,81.043,206.37,77.001,206.37,72.431z"/>
	<path fill="#BAB688" d="M254.638,81.208c0,1.303-0.279,2.683-0.837,4.141c-0.559,1.458-1.401,2.854-2.528,4.188
		s-2.549,2.419-4.265,3.257c-1.717,0.837-3.701,1.256-5.955,1.256c-2.233,0-4.451-0.486-6.653-1.458s-4.068-2.419-5.598-4.342
		c-0.662,1.53-1.086,2.946-1.272,4.249h-2.853V78.106h2.853c0.517,2.068,1.23,4.012,2.141,5.831c0.909,1.82,2.197,3.386,3.861,4.699
		s3.707,1.97,6.126,1.97c2.109,0,3.8-0.579,5.071-1.737s1.907-2.615,1.907-4.373c0-0.993-0.196-1.861-0.589-2.605
		c-0.394-0.744-0.962-1.411-1.706-2.001c-0.745-0.589-1.764-1.22-3.056-1.892s-2.766-1.38-4.42-2.125
		c-2.543-1.198-4.632-2.408-6.265-3.629c-1.634-1.22-2.869-2.403-3.707-3.551c-0.837-1.147-1.416-2.238-1.736-3.272
		c-0.321-1.034-0.48-2.078-0.48-3.133c0-1.881,0.506-3.737,1.52-5.567c1.013-1.83,2.497-3.329,4.45-4.497
		c1.954-1.168,4.213-1.753,6.777-1.753c1.964,0,3.836,0.439,5.614,1.318s3.318,2.084,4.621,3.613
		c0.372-0.868,0.714-2.088,1.023-3.659h2.916v11.724h-2.916c-2.067-6.39-5.666-9.584-10.793-9.584c-1.861,0-3.355,0.491-4.482,1.474
		s-1.69,2.248-1.69,3.799c0,1.221,0.352,2.28,1.055,3.18s1.628,1.67,2.776,2.311c1.147,0.642,3.003,1.562,5.567,2.761
		c3.102,1.468,5.525,2.74,7.272,3.814c1.748,1.075,3.227,2.43,4.436,4.063C254.033,76.918,254.638,78.893,254.638,81.208z"/>
</g>
<g>
</g>
<g>
</g>
<g>
</g>
<g>
</g>
<g>
</g>
<g>
</g>
</svg>
