<?xml version="1.0" encoding="UTF-8" standalone="no"?>
<svg width="70px" height="70px" viewBox="0 0 70 70" version="1.1" xmlns="http://www.w3.org/2000/svg" xmlns:xlink="http://www.w3.org/1999/xlink" xmlns:sketch="http://www.bohemiancoding.com/sketch/ns">
    <!-- Generator: Sketch 3.3.3 (12081) - http://www.bohemiancoding.com/sketch -->
    <title>Slice 1</title>
    <desc>Created with Sketch.</desc>
    <defs></defs>
    <g id="Page-1" stroke="none" stroke-width="1" fill="none" fill-rule="evenodd" sketch:type="MSPage">
        <g id="Imported-Layers" sketch:type="MSLayerGroup">
            <path d="M0.711,0.928 L69.537,0.928 L69.537,69.751 L0.711,69.751 L0.711,0.928 Z" id="Fill-1" fill="#000000" sketch:type="MSShapeGroup"></path>
            <path d="M20.5,43.795 C20.306,43.716 18.818,43.082 18.419,42.889 C17.991,42.684 17.969,42.363 17.953,42.096 C17.945,41.85 18.172,26.388 18.11,26.26 C18.075,26.19 17.985,26.177 17.908,26.243 C17.649,26.493 2.708,42.78 2.431,42.957 C1.9,43.368 0.853,43.751 0.796,43.78 C0.771,43.795 0.526,43.865 0.526,43.865 C0.526,43.865 0.769,43.9 0.814,43.9 L8.684,43.9 C8.802,43.9 8.823,43.799 8.739,43.784 C8.154,43.661 5.607,43.14 5.173,43.01 C4.752,42.885 4.705,42.631 4.867,42.403 C5.018,42.183 9.035,37.212 9.325,36.993 C9.691,36.71 9.849,36.668 10.496,36.657 C10.693,36.653 11.891,36.629 13.035,36.659 C13.992,36.681 14.912,36.762 15.189,36.784 C15.787,36.833 15.717,37.276 15.717,37.499 C15.717,37.725 15.546,41.37 15.532,41.988 C15.518,42.631 15.404,42.716 14.994,42.863 C14.79,42.925 12.103,43.784 12.005,43.83 C11.915,43.872 12.037,43.9 12.037,43.9 L20.399,43.9 C20.523,43.9 20.571,43.822 20.5,43.795 M15.785,35.449 C15.785,35.793 15.636,36.001 15.064,36.001 C14.496,36.001 10.989,35.988 10.989,35.988 C10.362,35.98 10.379,35.637 10.612,35.376 C10.844,35.118 15.116,30.526 15.274,30.346 C15.583,29.997 15.853,30.015 15.853,30.486 C15.853,30.962 15.785,35.216 15.785,35.449" id="Fill-2" fill="#FFFFFF" sketch:type="MSShapeGroup"></path>
            <path d="M66.316,43.795 C66.123,43.716 64.637,43.082 64.237,42.889 C63.811,42.684 63.786,42.363 63.771,42.096 C63.76,41.85 63.99,26.388 63.924,26.26 C63.892,26.19 63.803,26.177 63.724,26.243 C63.468,26.493 48.527,42.78 48.25,42.957 C47.719,43.368 46.671,43.751 46.614,43.78 C46.562,43.811 46.543,43.9 46.631,43.9 L54.504,43.9 C54.618,43.9 54.64,43.799 54.554,43.784 C53.972,43.661 51.425,43.14 50.991,43.01 C50.568,42.885 50.524,42.631 50.684,42.403 C50.838,42.183 54.852,37.212 55.144,36.993 C55.51,36.71 55.666,36.668 56.313,36.657 C56.512,36.653 57.71,36.629 58.855,36.659 C59.809,36.681 60.731,36.762 61.008,36.784 C61.604,36.833 61.536,37.276 61.536,37.499 C61.536,37.725 61.363,41.37 61.35,41.988 C61.333,42.631 61.222,42.716 60.813,42.863 C60.609,42.925 57.92,43.784 57.824,43.83 C57.734,43.872 57.854,43.9 57.854,43.9 L66.217,43.9 C66.343,43.9 66.391,43.822 66.316,43.795 M61.602,35.449 C61.602,35.793 61.453,36.001 60.882,36.001 C60.315,36.001 56.806,35.988 56.806,35.988 C56.177,35.98 56.196,35.637 56.429,35.376 C56.663,35.118 60.936,30.526 61.094,30.346 C61.403,29.997 61.67,30.015 61.67,30.486 C61.67,30.962 61.602,35.216 61.602,35.449" id="Fill-3" fill="#FFFFFF" sketch:type="MSShapeGroup"></path>
            <path d="M24.262,26.8 L32.392,26.8 C32.478,26.8 32.569,26.861 32.446,26.896 C32.326,26.931 31.002,27.317 30.853,27.364 C30.691,27.414 30.206,27.567 29.959,27.679 C29.55,27.864 29.401,28.078 29.3,28.399 C29.22,28.653 26.057,41.975 26.012,42.205 C25.954,42.51 25.936,42.767 26.293,42.909 C26.648,43.047 28.443,43.692 28.59,43.745 C28.737,43.799 28.7,43.9 28.541,43.9 L20.801,43.9 C20.649,43.9 20.581,43.854 20.705,43.795 C20.867,43.721 22.57,43.113 22.747,43.043 C22.92,42.975 23.363,42.808 23.484,42.414 C23.572,42.131 26.824,28.736 26.879,28.482 C26.956,28.153 26.921,27.822 26.54,27.686 C26.333,27.616 24.344,26.931 24.273,26.907 C24.158,26.868 24.158,26.8 24.262,26.8" id="Fill-4" fill="#FFFFFF" sketch:type="MSShapeGroup"></path>
            <path d="M47.351,32.918 C47.347,32.82 47.548,28.589 47.543,28.412 C47.532,27.967 47.532,27.695 47.039,27.535 C46.346,27.309 43.03,27.03 40.587,28.164 C36.489,30.072 34.108,34.484 34.587,38.008 C34.979,40.907 37.285,43.269 40.956,43.368 C42.109,43.398 42.954,43.227 43.201,43.155 C43.57,43.043 43.62,42.938 43.698,42.723 C43.78,42.504 44.396,39.92 44.419,39.811 C44.44,39.699 44.6,39.337 44.224,39.236 C43.849,39.135 40.528,38.236 40.351,38.188 C40.171,38.137 40.254,38.052 40.39,38.052 L46.631,38.052 C46.883,38.052 47.539,37.986 47.361,38.615 C47.188,39.243 46.232,42.218 46.153,42.429 C46.073,42.644 45.896,42.76 45.669,42.841 C45.44,42.925 42.73,43.973 40.096,44.041 C33.351,44.216 30.879,39.508 32.037,35.218 C32.644,32.966 34.124,30.842 36.004,29.361 C37.085,28.517 40.283,26.539 44.44,26.539 C45.229,26.539 47.242,26.642 48.714,27.023 C49.431,27.212 49.326,27.607 49.245,27.901 C49.201,28.052 47.617,32.817 47.568,32.938 C47.5,33.109 47.357,33.118 47.351,32.918" id="Fill-5" fill="#FFFFFF" sketch:type="MSShapeGroup"></path>
        </g>
    </g>
</svg>