<?xml version="1.0" encoding="UTF-8" standalone="no"?>
<svg width="86px" height="23px" viewBox="0 0 86 23" version="1.1" xmlns="http://www.w3.org/2000/svg" xmlns:xlink="http://www.w3.org/1999/xlink" xmlns:sketch="http://www.bohemiancoding.com/sketch/ns">
    <!-- Generator: Sketch 3.4.1 (15681) - http://www.bohemiancoding.com/sketch -->
    <title>Page 1</title>
    <desc>Created with Sketch.</desc>
    <defs></defs>
    <g id="Page-1" stroke="none" stroke-width="1" fill="none" fill-rule="evenodd" sketch:type="MSPage">
        <g sketch:type="MSLayerGroup">
            <path d="M0,0.3497 L0,22.9787 L22.628,22.9787 L22.629,0.3497 L0,0.3497 Z" id="Fill-1" fill="#F6F4EC" sketch:type="MSShapeGroup"></path>
            <g id="Group-16" sketch:type="MSShapeGroup">
                <path d="M9.6166,9.2179 C9.4816,9.2769 9.4356,9.3489 9.3996,9.4549 C9.3736,9.5369 8.3366,13.9179 8.3206,13.9929 C8.2996,14.0929 8.2946,14.1779 8.4086,14.2219 C8.5276,14.2709 9.1206,14.4789 9.1666,14.4999 C9.2136,14.5169 9.2026,14.5489 9.1516,14.5489 L6.6026,14.5489 C6.5556,14.5489 6.5296,14.5349 6.5756,14.5149 C6.6276,14.4909 7.1906,14.2889 7.2416,14.2679 C7.3036,14.2449 7.4486,14.1919 7.4896,14.0639 C7.5156,13.9679 8.5836,9.5659 8.6046,9.4809 C8.6296,9.3729 8.6196,9.2649 8.4916,9.2209 C8.4236,9.1939 7.7686,8.9729 7.7476,8.9629 C7.7116,8.9509 7.7116,8.9279 7.7426,8.9279 L10.4166,8.9279 C10.4466,8.9279 10.4736,8.9489 10.4366,8.9599 C10.3956,8.9699 9.9566,9.0979 9.9106,9.1129 C9.8586,9.1309 9.6986,9.1799 9.6166,9.2179" id="Fill-2" fill="#231F1F"></path>
                <path d="M14.7823,14.2013 C14.7063,14.2303 13.8123,14.5733 12.9503,14.5963 C10.7313,14.6553 9.9213,13.1063 10.3023,11.6963 C10.4993,10.9533 10.9843,10.2563 11.6033,9.7703 C11.9593,9.4933 13.0073,8.8433 14.3803,8.8433 C14.6383,8.8433 15.2993,8.8763 15.7843,9.0013 C16.0213,9.0633 15.9853,9.1943 15.9593,9.2913 C15.9443,9.3383 15.4223,10.9063 15.4083,10.9453 C15.3873,11.0033 15.3353,11.0053 15.3353,10.9413 C15.3353,10.9063 15.4023,9.5163 15.3973,9.4583 C15.3973,9.3113 15.3973,9.2203 15.2323,9.1713 C15.0053,9.0953 13.9153,9.0013 13.1103,9.3763 C11.7633,10.0053 10.9783,11.4573 11.1383,12.6123 C11.2683,13.5663 12.0273,14.3453 13.2343,14.3763 C13.6113,14.3863 13.8903,14.3303 13.9723,14.3043 C14.0913,14.2693 14.1073,14.2333 14.1373,14.1633 C14.1583,14.0933 14.3643,13.2423 14.3703,13.2063 C14.3803,13.1683 14.4313,13.0483 14.3083,13.0143 C14.1843,12.9813 13.0903,12.6853 13.0333,12.6703 C12.9763,12.6563 13.0023,12.6273 13.0443,12.6273 L15.0973,12.6273 C15.1803,12.6273 15.3973,12.6073 15.3403,12.8113 C15.2783,13.0193 14.9683,13.9993 14.9423,14.0663 C14.9173,14.1373 14.8553,14.1753 14.7823,14.2013" id="Fill-4" fill="#231F1F"></path>
                <path d="M6.5045,14.5151 C6.4425,14.4911 5.9515,14.2801 5.8225,14.2191 C5.6825,14.1511 5.6725,14.0431 5.6675,13.9561 C5.6675,13.8761 5.7405,8.7901 5.7185,8.7501 C5.7095,8.7271 5.6775,8.7231 5.6525,8.7471 C5.5695,8.8281 0.6555,14.1831 0.5675,14.2391 C0.3935,14.3771 0.0465,14.4941 0.0265,14.5021 C0.0265,14.5061 0.0155,14.5081 0.0005,14.5121 L0.0005,14.5531 C0.0155,14.5491 0.0265,14.5491 0.0315,14.5491 L2.6225,14.5491 C2.6585,14.5491 2.6685,14.5171 2.6385,14.5121 C2.4465,14.4731 1.6115,14.3011 1.4665,14.2571 C1.3265,14.2161 1.3115,14.1341 1.3685,14.0581 C1.4145,13.9841 2.7365,12.3521 2.8345,12.2781 C2.9535,12.1861 3.0045,12.1731 3.2155,12.1711 C3.2835,12.1681 3.6745,12.1581 4.0525,12.1711 C4.3675,12.1771 4.6715,12.2031 4.7595,12.2111 C4.9555,12.2261 4.9355,12.3731 4.9355,12.4481 C4.9355,12.5191 4.8775,13.7151 4.8725,13.9201 C4.8675,14.1311 4.8315,14.1601 4.6975,14.2071 C4.6305,14.2271 3.7425,14.5121 3.7115,14.5301 C3.6805,14.5401 3.7225,14.5491 3.7225,14.5491 L6.4725,14.5491 C6.5145,14.5491 6.5295,14.5271 6.5045,14.5151 M4.9555,11.7721 C4.9555,11.8871 4.9085,11.9511 4.7185,11.9511 C4.5325,11.9511 3.3815,11.9481 3.3815,11.9481 C3.1745,11.9451 3.1805,11.8311 3.2575,11.7491 C3.3295,11.6611 4.7395,10.1541 4.7905,10.0931 C4.8885,9.9791 4.9805,9.9841 4.9805,10.1401 C4.9805,10.2981 4.9555,11.6931 4.9555,11.7721" id="Fill-6" fill="#231F1F"></path>
                <path d="M21.5707,14.5151 C21.5087,14.4911 21.0187,14.2801 20.8887,14.2191 C20.7447,14.1511 20.7397,14.0431 20.7337,13.9561 C20.7287,13.8761 20.8067,8.7901 20.7847,8.7501 C20.7757,8.7271 20.7447,8.7231 20.7187,8.7471 C20.6357,8.8281 15.7227,14.1831 15.6297,14.2391 C15.4537,14.3771 15.1127,14.5001 15.0927,14.5121 C15.0717,14.5201 15.0717,14.5491 15.0977,14.5491 L17.6887,14.5491 C17.7247,14.5491 17.7297,14.5171 17.7047,14.5121 C17.5127,14.4731 16.6777,14.3011 16.5327,14.2571 C16.3937,14.2161 16.3777,14.1341 16.4297,14.0581 C16.4817,13.9841 17.8017,12.3521 17.8957,12.2781 C18.0197,12.1861 18.0707,12.1731 18.2817,12.1711 C18.3497,12.1681 18.7417,12.1581 19.1187,12.1711 C19.4337,12.1771 19.7327,12.2031 19.8257,12.2111 C20.0217,12.2261 20.0017,12.3731 20.0017,12.4481 C20.0017,12.5191 19.9437,13.7151 19.9387,13.9201 C19.9337,14.1311 19.8977,14.1601 19.7637,14.2071 C19.6917,14.2271 18.8087,14.5121 18.7777,14.5301 C18.7467,14.5401 18.7887,14.5491 18.7887,14.5491 L21.5397,14.5491 C21.5807,14.5491 21.5957,14.5271 21.5707,14.5151 M20.0217,11.7721 C20.0217,11.8871 19.9707,11.9511 19.7837,11.9511 C19.5987,11.9511 18.4417,11.9481 18.4417,11.9481 C18.2357,11.9451 18.2407,11.8311 18.3177,11.7491 C18.3967,11.6611 19.8007,10.1541 19.8517,10.0931 C19.9547,9.9791 20.0427,9.9841 20.0427,10.1401 C20.0427,10.2981 20.0217,11.6931 20.0217,11.7721" id="Fill-8" fill="#231F1F"></path>
                <path d="M33.139,0.3789 C36.952,0.3789 39.861,2.3829 40.669,6.0989 L36.564,7.7469 C36.112,5.7109 34.884,4.9029 33.107,4.9029 C31.265,4.9029 30.36,5.7759 30.36,6.9069 C30.36,8.5219 32.105,8.9749 34.496,9.7509 C37.566,10.7519 40.442,12.2389 40.442,16.4399 C40.442,20.6729 37.275,22.9999 33.139,22.9999 C29.649,22.9999 26.45,21.3199 25.577,17.2799 L29.617,15.5349 C30.069,17.5389 31.232,18.4759 33.171,18.4759 C34.916,18.4759 35.918,17.6999 35.918,16.4399 C35.918,14.7599 34.141,14.3069 31.911,13.6279 C29.067,12.7239 25.836,11.2049 25.836,6.8749 C25.836,2.7699 28.97,0.3789 33.139,0.3789" id="Fill-10" fill="#F6F4EC"></path>
                <path d="M58.581,0.3789 L58.581,4.9029 L48.499,4.9029 L48.499,9.4279 L58.581,9.4279 L58.581,13.9519 L48.499,13.9519 L48.499,18.4759 L58.581,18.4759 L58.581,22.9999 L43.974,22.9999 L43.974,0.3789 L58.581,0.3789 Z" id="Fill-12" fill="#F6F4EC"></path>
                <path d="M68.9577,14.921 L76.6487,14.921 L72.8037,6.584 L68.9577,14.921 Z M78.7497,19.445 L66.8577,19.445 L65.2087,23 L60.2327,23 L70.7027,0.379 L74.9037,0.379 L85.3737,23 L80.3977,23 L78.7497,19.445 Z" id="Fill-14" fill="#F6F4EC"></path>
            </g>
        </g>
    </g>
</svg>