<?xml version="1.0" encoding="UTF-8" standalone="no"?>
<svg width="17px" height="17px" viewBox="0 0 17 17" version="1.1" xmlns="http://www.w3.org/2000/svg" xmlns:xlink="http://www.w3.org/1999/xlink" xmlns:sketch="http://www.bohemiancoding.com/sketch/ns">
    <!-- Generator: Sketch 3.4.2 (15857) - http://www.bohemiancoding.com/sketch -->
    <title>Page 1</title>
    <desc>Created with Sketch.</desc>
    <defs>
        <path id="path-1" d="M0,0.599 L16.334,0.599 L16.334,17 L0,17 L0,0.599 Z"></path>
        <path id="path-3" d="M0,0.599 L16.334,0.599 L16.334,17 L0,17"></path>
    </defs>
    <g id="Page-1" stroke="none" stroke-width="1" fill="none" fill-rule="evenodd" sketch:type="MSPage">
        <g sketch:type="MSLayerGroup">
            <path d="M9.8595,8.9762 C9.8595,8.0882 9.1385,7.3662 8.2505,7.3662 C7.3635,7.3662 6.6395,8.0882 6.6395,8.9762 C6.6395,9.8652 7.3635,10.5852 8.2505,10.5852 C9.1385,10.5852 9.8595,9.8652 9.8595,8.9762" id="Fill-1" fill="#F6F4EC" sketch:type="MSShapeGroup"></path>
            <g id="Group-5">
                <mask id="mask-2" sketch:name="Clip 4" fill="white">
                    <use xlink:href="#path-1"></use>
                </mask>
                <g id="Clip-4"></g>
                <path d="M11.597,3.0799 C11.597,2.8279 11.799,2.6259 12.049,2.6259 L13.451,2.6259 C13.701,2.6259 13.905,2.8279 13.905,3.0799 L13.905,4.4799 C13.905,4.7289 13.701,4.9339 13.451,4.9339 L12.049,4.9339 C11.799,4.9339 11.597,4.7289 11.597,4.4799 L11.597,3.0799 Z M8.25,5.0989 C9.086,5.0989 9.862,5.3669 10.493,5.8189 L16.334,5.8189 L16.334,4.6799 C16.334,2.4289 14.502,0.5989 12.252,0.5989 L4.083,0.5989 C1.831,0.5989 0,2.4289 0,4.6799 L0,5.8189 L6.006,5.8189 C6.64,5.3669 7.415,5.0989 8.25,5.0989 L8.25,5.0989 Z" id="Fill-3" fill="#F6F4EC" sketch:type="MSShapeGroup" mask="url(#mask-2)"></path>
            </g>
            <g id="Group-8">
                <mask id="mask-4" sketch:name="Clip 7" fill="white">
                    <use xlink:href="#path-3"></use>
                </mask>
                <g id="Clip-7"></g>
                <path d="M12.1279,8.9762 C12.1279,11.1162 10.3879,12.8552 8.2499,12.8552 C6.1119,12.8552 4.3739,11.1162 4.3739,8.9762 C4.3739,8.3882 4.5049,7.8302 4.7409,7.3302 L-0.0001,7.3302 L-0.0001,12.9172 C-0.0001,15.1682 1.8309,17.0002 4.0829,17.0002 L12.2519,17.0002 C14.5029,17.0002 16.3339,15.1682 16.3339,12.9172 L16.3339,7.3302 L11.7599,7.3302 C11.9959,7.8302 12.1279,8.3882 12.1279,8.9762" id="Fill-6" fill="#F6F4EC" sketch:type="MSShapeGroup" mask="url(#mask-4)"></path>
            </g>
        </g>
    </g>
</svg>