<?xml version="1.0" encoding="UTF-8" standalone="no"?>
<svg width="20px" height="20px" viewBox="0 0 20 20" version="1.1" xmlns="http://www.w3.org/2000/svg" xmlns:xlink="http://www.w3.org/1999/xlink" xmlns:sketch="http://www.bohemiancoding.com/sketch/ns">
    <!-- Generator: Sketch 3.4.1 (15681) - http://www.bohemiancoding.com/sketch -->
    <title>Page 1</title>
    <desc>Created with Sketch.</desc>
    <defs>
        <path id="path-1" d="M0,0.604 L19.317,0.604 L19.317,20 L0,20"></path>
    </defs>
    <g id="Page-1" stroke="none" stroke-width="1" fill="none" fill-rule="evenodd" sketch:type="MSPage">
        <g sketch:type="MSLayerGroup">
            <path d="M11.6597,10.5112 C11.6597,9.4612 10.8067,8.6072 9.7567,8.6072 C8.7077,8.6072 7.8517,9.4612 7.8517,10.5112 C7.8517,11.5622 8.7077,12.4142 9.7567,12.4142 C10.8067,12.4142 11.6597,11.5622 11.6597,10.5112" id="Fill-1" fill="#231F1F" sketch:type="MSShapeGroup"></path>
            <path d="M13.7144,3.5383 C13.7144,3.2403 13.9534,3.0013 14.2494,3.0013 L15.9064,3.0013 C16.2024,3.0013 16.4444,3.2403 16.4444,3.5383 L16.4444,5.1933 C16.4444,5.4883 16.2024,5.7303 15.9064,5.7303 L14.2494,5.7303 C13.9534,5.7303 13.7144,5.4883 13.7144,5.1933 L13.7144,3.5383 Z M9.7564,5.9253 C10.7454,5.9253 11.6624,6.2423 12.4084,6.7773 L19.3164,6.7773 L19.3164,5.4313 C19.3164,2.7683 17.1504,0.6043 14.4884,0.6043 L4.8284,0.6043 C2.1654,0.6043 0.0004,2.7683 0.0004,5.4313 L0.0004,6.7773 L7.1024,6.7773 C7.8524,6.2423 8.7684,5.9253 9.7564,5.9253 L9.7564,5.9253 Z" id="Fill-3" fill="#231F1F" sketch:type="MSShapeGroup"></path>
            <g id="Group-7">
                <mask id="mask-2" sketch:name="Clip 6" fill="white">
                    <use xlink:href="#path-1"></use>
                </mask>
                <g id="Clip-6"></g>
                <path d="M14.3422,10.5112 C14.3422,13.0412 12.2852,15.0982 9.7562,15.0982 C7.2282,15.0982 5.1722,13.0412 5.1722,10.5112 C5.1722,9.8162 5.3272,9.1562 5.6062,8.5642 L0.0002,8.5642 L0.0002,15.1722 C0.0002,17.8342 2.1652,20.0002 4.8282,20.0002 L14.4882,20.0002 C17.1502,20.0002 19.3162,17.8342 19.3162,15.1722 L19.3162,8.5642 L13.9072,8.5642 C14.1862,9.1562 14.3422,9.8162 14.3422,10.5112" id="Fill-5" fill="#231F1F" sketch:type="MSShapeGroup" mask="url(#mask-2)"></path>
            </g>
        </g>
    </g>
</svg>